P3
2
2
5

5
0
5
0
0
5
0
0
0
0
5
3
