P3
2
2
255
4 5 6
10 11 12
1 2 3
7 8 9
